<?xml version="1.0" encoding="UTF-8" standalone="no"?><svg xmlns="http://www.w3.org/2000/svg" xmlns:xlink="http://www.w3.org/1999/xlink" contentScriptType="application/ecmascript" contentStyleType="text/css" height="509px" preserveAspectRatio="none" style="width:495px;height:509px;" version="1.1" viewBox="0 0 495 509" width="495px" zoomAndPan="magnify"><defs><filter height="300%" id="fhwoecspn6omu" width="300%" x="-1" y="-1"><feGaussianBlur result="blurOut" stdDeviation="2.0"/><feColorMatrix in="blurOut" result="blurOut2" type="matrix" values="0 0 0 0 0 0 0 0 0 0 0 0 0 0 0 0 0 0 .4 0"/><feOffset dx="4.0" dy="4.0" in="blurOut2" result="blurOut3"/><feBlend in="SourceGraphic" in2="blurOut3" mode="normal"/></filter></defs><g><text fill="#000000" font-family="sans-serif" font-size="18" lengthAdjust="spacingAndGlyphs" textLength="303" x="95" y="27.4023">Create and Start Education Session</text><ellipse cx="131" cy="41.1992" fill="#000000" filter="url(#fhwoecspn6omu)" rx="10" ry="10" style="stroke: none; stroke-width: 1.0;"/><rect fill="#FEFECE" filter="url(#fhwoecspn6omu)" height="34.1328" rx="12.5" ry="12.5" style="stroke: #A80036; stroke-width: 1.5;" width="169" x="46.5" y="71.1992"/><text fill="#000000" font-family="sans-serif" font-size="12" lengthAdjust="spacingAndGlyphs" textLength="149" x="56.5" y="92.8008">Get Education Instructions</text><rect fill="#FEFECE" filter="url(#fhwoecspn6omu)" height="34.1328" rx="12.5" ry="12.5" style="stroke: #A80036; stroke-width: 1.5;" width="113" x="74.5" y="169.332"/><text fill="#000000" font-family="sans-serif" font-size="12" lengthAdjust="spacingAndGlyphs" textLength="93" x="84.5" y="190.9336">Read Instruction</text><path d="M246,227.876 L246,236.5313 L226,240.5313 L246,244.5313 L246,253.1865 A0,0 0 0 0 246,253.1865 L457,253.1865 A0,0 0 0 0 457,253.1865 L457,237.876 L447,227.876 L246,227.876 A0,0 0 0 0 246,227.876 " fill="#FBFB77" filter="url(#fhwoecspn6omu)" style="stroke: #A80036; stroke-width: 1.0;"/><path d="M447,227.876 L447,237.876 L457,237.876 L447,227.876 " fill="#FBFB77" style="stroke: #A80036; stroke-width: 1.0;"/><text fill="#000000" font-family="sans-serif" font-size="13" lengthAdjust="spacingAndGlyphs" textLength="190" x="252" y="245.4443">Take care about dependencies</text><rect fill="#FEFECE" filter="url(#fhwoecspn6omu)" height="34.1328" rx="12.5" ry="12.5" style="stroke: #A80036; stroke-width: 1.5;" width="190" x="36" y="223.4648"/><text fill="#000000" font-family="sans-serif" font-size="12" lengthAdjust="spacingAndGlyphs" textLength="170" x="46" y="245.0664">Transform Instruction to Task</text><rect fill="#FEFECE" filter="url(#fhwoecspn6omu)" height="34.1328" rx="12.5" ry="12.5" style="stroke: #A80036; stroke-width: 1.5;" width="180" x="41" y="292.5977"/><text fill="#000000" font-family="sans-serif" font-size="12" lengthAdjust="spacingAndGlyphs" textLength="160" x="51" y="314.1992">Assign to Proper Participant</text><rect fill="#FEFECE" filter="url(#fhwoecspn6omu)" height="34.1328" rx="12.5" ry="12.5" style="stroke: #A80036; stroke-width: 1.5;" width="169" x="46.5" y="346.7305"/><text fill="#000000" font-family="sans-serif" font-size="12" lengthAdjust="spacingAndGlyphs" textLength="149" x="56.5" y="368.332">Add To Education Session</text><polygon fill="#FEFECE" filter="url(#fhwoecspn6omu)" points="63.5,125.332,198.5,125.332,210.5,137.332,198.5,149.332,63.5,149.332,51.5,137.332,63.5,125.332" style="stroke: #A80036; stroke-width: 1.5;"/><text fill="#000000" font-family="sans-serif" font-size="11" lengthAdjust="spacingAndGlyphs" textLength="135" x="63.5" y="141.4893">Has yet one instructions?</text><rect fill="#FEFECE" filter="url(#fhwoecspn6omu)" height="34.1328" rx="12.5" ry="12.5" style="stroke: #A80036; stroke-width: 1.5;" width="152" x="55" y="422.8633"/><text fill="#000000" font-family="sans-serif" font-size="12" lengthAdjust="spacingAndGlyphs" textLength="132" x="65" y="444.4648">Start Education Session</text><ellipse cx="131" cy="487.9961" fill="#FFFFFF" filter="url(#fhwoecspn6omu)" rx="11" ry="11" style="stroke: #000000; stroke-width: 1.0;"/><ellipse cx="131" cy="487.9961" fill="#000000" rx="6" ry="6" style="stroke: #7F7F7F; stroke-width: 1.0;"/><line style="stroke: #A80036; stroke-width: 1.5;" x1="131" x2="131" y1="51.1992" y2="71.1992"/><polygon fill="#A80036" points="127,61.1992,131,71.1992,135,61.1992,131,65.1992" style="stroke: #A80036; stroke-width: 1.0;"/><line style="stroke: #A80036; stroke-width: 1.5;" x1="131" x2="131" y1="203.4648" y2="223.4648"/><polygon fill="#A80036" points="127,213.4648,131,223.4648,135,213.4648,131,217.4648" style="stroke: #A80036; stroke-width: 1.0;"/><line style="stroke: #A80036; stroke-width: 1.5;" x1="131" x2="131" y1="257.5977" y2="292.5977"/><polygon fill="#A80036" points="127,282.5977,131,292.5977,135,282.5977,131,286.5977" style="stroke: #A80036; stroke-width: 1.0;"/><line style="stroke: #A80036; stroke-width: 1.5;" x1="131" x2="131" y1="326.7305" y2="346.7305"/><polygon fill="#A80036" points="127,336.7305,131,346.7305,135,336.7305,131,340.7305" style="stroke: #A80036; stroke-width: 1.0;"/><line style="stroke: #A80036; stroke-width: 1.5;" x1="131" x2="131" y1="149.332" y2="169.332"/><polygon fill="#A80036" points="127,159.332,131,169.332,135,159.332,131,163.332" style="stroke: #A80036; stroke-width: 1.0;"/><line style="stroke: #A80036; stroke-width: 1.5;" x1="131" x2="131" y1="380.8633" y2="390.8633"/><line style="stroke: #A80036; stroke-width: 1.5;" x1="131" x2="469" y1="390.8633" y2="390.8633"/><polygon fill="#A80036" points="465,273.0977,469,263.0977,473,273.0977,469,269.0977" style="stroke: #A80036; stroke-width: 1.5;"/><line style="stroke: #A80036; stroke-width: 1.5;" x1="469" x2="469" y1="137.332" y2="390.8633"/><line style="stroke: #A80036; stroke-width: 1.5;" x1="469" x2="210.5" y1="137.332" y2="137.332"/><polygon fill="#A80036" points="220.5,133.332,210.5,137.332,220.5,141.332,216.5,137.332" style="stroke: #A80036; stroke-width: 1.0;"/><line style="stroke: #A80036; stroke-width: 1.5;" x1="51.5" x2="24" y1="137.332" y2="137.332"/><polygon fill="#A80036" points="20,259.0977,24,269.0977,28,259.0977,24,263.0977" style="stroke: #A80036; stroke-width: 1.5;"/><line style="stroke: #A80036; stroke-width: 1.5;" x1="24" x2="24" y1="137.332" y2="402.8633"/><line style="stroke: #A80036; stroke-width: 1.5;" x1="24" x2="131" y1="402.8633" y2="402.8633"/><line style="stroke: #A80036; stroke-width: 1.5;" x1="131" x2="131" y1="402.8633" y2="422.8633"/><polygon fill="#A80036" points="127,412.8633,131,422.8633,135,412.8633,131,416.8633" style="stroke: #A80036; stroke-width: 1.0;"/><line style="stroke: #A80036; stroke-width: 1.5;" x1="131" x2="131" y1="105.332" y2="125.332"/><polygon fill="#A80036" points="127,115.332,131,125.332,135,115.332,131,119.332" style="stroke: #A80036; stroke-width: 1.0;"/><line style="stroke: #A80036; stroke-width: 1.5;" x1="131" x2="131" y1="456.9961" y2="476.9961"/><polygon fill="#A80036" points="127,466.9961,131,476.9961,135,466.9961,131,470.9961" style="stroke: #A80036; stroke-width: 1.0;"/><!--MD5=[e8f240f76b01d7c8bee4804d5f51dd6b]
@startuml

title Create and Start Education Session

start

:Get Education Instructions;

while (Has yet one instructions?)
  :Read Instruction;
  :Transform Instruction to Task;
  note right: Take care about dependencies
  :Assign to Proper Participant;
  :Add To Education Session;
endwhile

:Start Education Session;

stop

@enduml

PlantUML version 1.2019.11(Sun Sep 22 13:02:15 EEST 2019)
(GPL source distribution)
Java Runtime: OpenJDK Runtime Environment
JVM: OpenJDK 64-Bit Server VM
Java Version: 11.0.5+10-b520.38
Operating System: Mac OS X
Default Encoding: UTF-8
Language: en
Country: UA
--></g></svg>