<?xml version="1.0" encoding="UTF-8" standalone="no"?><svg xmlns="http://www.w3.org/2000/svg" xmlns:xlink="http://www.w3.org/1999/xlink" contentScriptType="application/ecmascript" contentStyleType="text/css" height="580.8px" preserveAspectRatio="none" style="width:976px;height:580px;" version="1.1" viewBox="0 0 976 580" width="976.8px" zoomAndPan="magnify"><defs><filter height="300%" id="f84tjrubtxzfp" width="300%" x="-1" y="-1"><feGaussianBlur result="blurOut" stdDeviation="2.4"/><feColorMatrix in="blurOut" result="blurOut2" type="matrix" values="0 0 0 0 0 0 0 0 0 0 0 0 0 0 0 0 0 0 .4 0"/><feOffset dx="4.8" dy="4.8" in="blurOut2" result="blurOut3"/><feBlend in="SourceGraphic" in2="blurOut3" mode="normal"/></filter></defs><g><ellipse cx="373.8" cy="58.1953" fill="#000000" filter="url(#f84tjrubtxzfp)" rx="12" ry="12" style="stroke: none; stroke-width: 1.2;"/><path d="M24,82.1953 L24,149.3133 A0,0 0 0 0 24,149.3133 L277.2,149.3133 A0,0 0 0 0 277.2,149.3133 L277.2,120.5543 L301.2,115.7543 L277.2,110.9543 L277.2,94.1953 L265.2,82.1953 L24,82.1953 A0,0 0 0 0 24,82.1953 " fill="#FBFB77" filter="url(#f84tjrubtxzfp)" style="stroke: #A80036; stroke-width: 1.2;"/><path d="M265.2,82.1953 L265.2,94.1953 L277.2,94.1953 L265.2,82.1953 " fill="#FBFB77" style="stroke: #A80036; stroke-width: 1.2;"/><text fill="#000000" font-family="sans-serif" font-size="15.6" lengthAdjust="spacingAndGlyphs" textLength="186" x="31.2" y="103.2773">Mentor adds Trainee and</text><text fill="#000000" font-family="sans-serif" font-size="15.6" lengthAdjust="spacingAndGlyphs" textLength="228" x="31.2" y="121.65">Assistant Bot as Collaborators</text><text fill="#000000" font-family="sans-serif" font-size="15.6" lengthAdjust="spacingAndGlyphs" textLength="73.2" x="31.2" y="140.0227">to project</text><rect fill="#FEFECE" filter="url(#f84tjrubtxzfp)" height="40.9594" rx="15" ry="15" style="stroke: #A80036; stroke-width: 1.7999999999999998;" width="145.2" x="301.2" y="95.2746"/><text fill="#000000" font-family="sans-serif" font-size="14.4" lengthAdjust="spacingAndGlyphs" textLength="121.2" x="313.2" y="121.1965">Invite Participatns</text><rect fill="#FEFECE" filter="url(#f84tjrubtxzfp)" height="40.9594" rx="15" ry="15" style="stroke: #A80036; stroke-width: 1.7999999999999998;" width="162" x="292.8" y="173.3133"/><text fill="#000000" font-family="sans-serif" font-size="14.4" lengthAdjust="spacingAndGlyphs" textLength="138" x="304.8" y="199.2352">Prepare Instructions</text><rect fill="#FEFECE" filter="url(#f84tjrubtxzfp)" height="40.9594" rx="15" ry="15" style="stroke: #A80036; stroke-width: 1.7999999999999998;" width="158.4" x="192.9" y="424.8844"/><text fill="#000000" font-family="sans-serif" font-size="14.4" lengthAdjust="spacingAndGlyphs" textLength="134.4" x="204.9" y="450.8063">Change Instructions</text><ellipse cx="272.1" cy="503.0438" fill="#FFFFFF" filter="url(#f84tjrubtxzfp)" rx="13.2" ry="13.2" style="stroke: #000000; stroke-width: 1.2;"/><ellipse cx="272.1" cy="503.0438" fill="#000000" rx="7.2" ry="7.2" style="stroke: #7F7F7F; stroke-width: 1.2;"/><path d="M746.7,234.3797 L746.7,253.9523 L722.7,258.7523 L746.7,263.5523 L746.7,283.125 A0,0 0 0 0 746.7,283.125 L950.7,283.125 A0,0 0 0 0 950.7,283.125 L950.7,246.3797 L938.7,234.3797 L746.7,234.3797 A0,0 0 0 0 746.7,234.3797 " fill="#FBFB77" filter="url(#f84tjrubtxzfp)" style="stroke: #A80036; stroke-width: 1.2;"/><path d="M938.7,234.3797 L938.7,246.3797 L950.7,246.3797 L938.7,234.3797 " fill="#FBFB77" style="stroke: #A80036; stroke-width: 1.2;"/><text fill="#000000" font-family="sans-serif" font-size="15.6" lengthAdjust="spacingAndGlyphs" textLength="153.6" x="753.9" y="255.4617">Check Collaborators</text><text fill="#000000" font-family="sans-serif" font-size="15.6" lengthAdjust="spacingAndGlyphs" textLength="178.8" x="753.9" y="273.8344">and Instructions format</text><rect fill="#FEFECE" filter="url(#f84tjrubtxzfp)" height="40.9594" rx="15" ry="15" style="stroke: #A80036; stroke-width: 1.7999999999999998;" width="146.4" x="576.3" y="238.2727"/><text fill="#000000" font-family="sans-serif" font-size="14.4" lengthAdjust="spacingAndGlyphs" textLength="122.4" x="588.3" y="264.1945">Verify Instructions</text><polygon fill="#FEFECE" filter="url(#f84tjrubtxzfp)" points="612.3,307.125,686.7,307.125,701.1,321.525,686.7,335.925,612.3,335.925,597.9,321.525,612.3,307.125" style="stroke: #A80036; stroke-width: 1.7999999999999998;"/><text fill="#000000" font-family="sans-serif" font-size="13.2" lengthAdjust="spacingAndGlyphs" textLength="74.4" x="612.3" y="326.5137">Has issues?</text><text fill="#000000" font-family="sans-serif" font-size="13.2" lengthAdjust="spacingAndGlyphs" textLength="21.6" x="576.3" y="318.7406">yes</text><text fill="#000000" font-family="sans-serif" font-size="13.2" lengthAdjust="spacingAndGlyphs" textLength="16.8" x="701.1" y="318.7406">no</text><rect fill="#FEFECE" filter="url(#f84tjrubtxzfp)" height="40.9594" rx="15" ry="15" style="stroke: #A80036; stroke-width: 1.7999999999999998;" width="162" x="466.8" y="359.925"/><text fill="#000000" font-family="sans-serif" font-size="14.4" lengthAdjust="spacingAndGlyphs" textLength="138" x="478.8" y="385.8469">Report about issues</text><rect fill="#FEFECE" filter="url(#f84tjrubtxzfp)" height="40.9594" rx="15" ry="15" style="stroke: #A80036; stroke-width: 1.7999999999999998;" width="196.8" x="652.8" y="359.925"/><text fill="#000000" font-family="sans-serif" font-size="14.4" lengthAdjust="spacingAndGlyphs" textLength="172.8" x="664.8" y="385.8469">Create Education Session</text><ellipse cx="649.5" cy="553.4438" fill="#FFFFFF" filter="url(#f84tjrubtxzfp)" rx="13.2" ry="13.2" style="stroke: #000000; stroke-width: 1.2;"/><ellipse cx="649.5" cy="553.4438" fill="#000000" rx="7.2" ry="7.2" style="stroke: #7F7F7F; stroke-width: 1.2;"/><line style="stroke: #A80036; stroke-width: 1.7999999999999998;" x1="373.8" x2="373.8" y1="70.1953" y2="95.2746"/><polygon fill="#A80036" points="369,83.2746,373.8,95.2746,378.6,83.2746,373.8,88.0746" style="stroke: #A80036; stroke-width: 1.2;"/><line style="stroke: #A80036; stroke-width: 1.7999999999999998;" x1="373.8" x2="373.8" y1="136.234" y2="173.3133"/><polygon fill="#A80036" points="369,161.3133,373.8,173.3133,378.6,161.3133,373.8,166.1133" style="stroke: #A80036; stroke-width: 1.2;"/><line style="stroke: #A80036; stroke-width: 1.7999999999999998;" x1="272.1" x2="272.1" y1="465.8438" y2="489.8438"/><polygon fill="#A80036" points="267.3,477.8438,272.1,489.8438,276.9,477.8438,272.1,482.6437" style="stroke: #A80036; stroke-width: 1.2;"/><line style="stroke: #A80036; stroke-width: 1.7999999999999998;" x1="597.9" x2="547.8" y1="321.525" y2="321.525"/><line style="stroke: #A80036; stroke-width: 1.7999999999999998;" x1="547.8" x2="547.8" y1="321.525" y2="359.925"/><polygon fill="#A80036" points="543,347.925,547.8,359.925,552.6,347.925,547.8,352.725" style="stroke: #A80036; stroke-width: 1.2;"/><line style="stroke: #A80036; stroke-width: 1.7999999999999998;" x1="701.1" x2="751.2" y1="321.525" y2="321.525"/><line style="stroke: #A80036; stroke-width: 1.7999999999999998;" x1="751.2" x2="751.2" y1="321.525" y2="359.925"/><polygon fill="#A80036" points="746.4,347.925,751.2,359.925,756,347.925,751.2,352.725" style="stroke: #A80036; stroke-width: 1.2;"/><line style="stroke: #A80036; stroke-width: 1.7999999999999998;" x1="751.2" x2="751.2" y1="400.8844" y2="522.2438"/><line style="stroke: #A80036; stroke-width: 1.7999999999999998;" x1="751.2" x2="649.5" y1="522.2438" y2="522.2438"/><line style="stroke: #A80036; stroke-width: 1.7999999999999998;" x1="649.5" x2="649.5" y1="522.2438" y2="540.2438"/><polygon fill="#A80036" points="644.7,528.2438,649.5,540.2438,654.3,528.2438,649.5,533.0437" style="stroke: #A80036; stroke-width: 1.2;"/><line style="stroke: #A80036; stroke-width: 1.7999999999999998;" x1="649.5" x2="649.5" y1="279.232" y2="307.125"/><polygon fill="#A80036" points="644.7,295.125,649.5,307.125,654.3,295.125,649.5,299.925" style="stroke: #A80036; stroke-width: 1.2;"/><line style="stroke: #A80036; stroke-width: 1.7999999999999998;" x1="373.8" x2="373.8" y1="214.2727" y2="220.2727"/><line style="stroke: #A80036; stroke-width: 1.7999999999999998;" x1="373.8" x2="649.5" y1="220.2727" y2="220.2727"/><line style="stroke: #A80036; stroke-width: 1.7999999999999998;" x1="649.5" x2="649.5" y1="220.2727" y2="238.2727"/><polygon fill="#A80036" points="644.7,226.2727,649.5,238.2727,654.3,226.2727,649.5,231.0727" style="stroke: #A80036; stroke-width: 1.2;"/><line style="stroke: #A80036; stroke-width: 1.7999999999999998;" x1="547.8" x2="547.8" y1="400.8844" y2="406.8844"/><line style="stroke: #A80036; stroke-width: 1.7999999999999998;" x1="547.8" x2="272.1" y1="406.8844" y2="406.8844"/><line style="stroke: #A80036; stroke-width: 1.7999999999999998;" x1="272.1" x2="272.1" y1="406.8844" y2="424.8844"/><polygon fill="#A80036" points="267.3,412.8844,272.1,424.8844,276.9,412.8844,272.1,417.6844" style="stroke: #A80036; stroke-width: 1.2;"/><text fill="#000000" font-family="sans-serif" font-size="21.6" lengthAdjust="spacingAndGlyphs" textLength="74.4" x="201.6" y="35.6391">Mentor</text><text fill="#000000" font-family="sans-serif" font-size="21.6" lengthAdjust="spacingAndGlyphs" textLength="94.8" x="661.35" y="35.6391">Assistant</text><line style="stroke: #000000; stroke-width: 2.4;" x1="12" x2="12" y1="14.7563" y2="566.6438"/><line style="stroke: #000000; stroke-width: 2.4;" x1="460.8" x2="460.8" y1="14.7563" y2="566.6438"/><line style="stroke: #000000; stroke-width: 2.4;" x1="962.7" x2="962.7" y1="14.7563" y2="566.6438"/><!--MD5=[d5510b32321cb3d04021ce54a637b054]
@startuml
|Mentor|
start
:Invite Participatns;
note left
  Mentor adds Trainee and
  Assistant Bot as Collaborators
  to project
end note

:Prepare Instructions;
|Assistant|
:Verify Instructions;
note right
 Check Collaborators
 and Instructions format
end note
if (Has issues?) then (yes)
  :Report about issues;
  |Mentor|
  :Change Instructions;
  stop;
else (no)
  |Assistant|
  :Create Education Session;
endif

stop
@enduml

PlantUML version 1.2019.11(Sun Sep 22 13:02:15 EEST 2019)
(GPL source distribution)
Java Runtime: OpenJDK Runtime Environment
JVM: OpenJDK 64-Bit Server VM
Java Version: 11.0.5+10-b520.38
Operating System: Mac OS X
Default Encoding: UTF-8
Language: en
Country: UA
--></g></svg>