<svg version="1.1" xmlns="http://www.w3.org/2000/svg" xmlns:xlink="http://www.w3.org/1999/xlink" width="1351.3466796875"
     height="1932">
  <defs/>
  <g>
    <g transform="translate(-1246,-366) scale(1,1)">
      <rect fill="#C0C0C0" stroke="none" x="1487" y="383" width="704" height="664" opacity="0.2"/>
    </g>
    <g transform="translate(-1246,-366) scale(1,1)">
      <rect fill="#ffffff" stroke="none" x="1480" y="376" width="704" height="664"/>
    </g>
    <g transform="translate(-1246,-366) scale(1,1)">
      <path fill="none" stroke="#000000" d="M 1480 376 L 2184 376 L 2184 1040 L 1480 1040 L 1480 376 Z Z"
            stroke-miterlimit="10"/>
    </g>
    <g transform="translate(-1246,-366) scale(1,1)">
      <g>
        <path fill="none" stroke="none"/>
        <text fill="#000000" stroke="none" font-family="Arial" font-size="13px" font-style="normal" font-weight="bold"
              text-decoration="none" x="1803.4609375" y="395.5">Menotium
        </text>
      </g>
    </g>
    <g transform="translate(-1246,-366) scale(1,1)">
      <rect fill="#C0C0C0" stroke="none" x="1487" y="1823" width="712" height="472" opacity="0.2"/>
    </g>
    <g transform="translate(-1246,-366) scale(1,1)">
      <rect fill="#ffffff" stroke="none" x="1480" y="1816" width="712" height="472"/>
    </g>
    <g transform="translate(-1246,-366) scale(1,1)">
      <path fill="none" stroke="#000000" d="M 1480 1816 L 2192 1816 L 2192 2288 L 1480 2288 L 1480 1816 Z Z"
            stroke-miterlimit="10"/>
    </g>
    <g transform="translate(-1246,-366) scale(1,1)">
      <g>
        <path fill="none" stroke="none"/>
        <text fill="#000000" stroke="none" font-family="Arial" font-size="13px" font-style="normal" font-weight="bold"
              text-decoration="none" x="1815.760498046875" y="1835.5">Ledger
        </text>
      </g>
    </g>
    <g transform="translate(-1246,-366) scale(1,1)">
      <rect fill="#C0C0C0" stroke="none" x="1487" y="1095" width="704" height="688" opacity="0.2"/>
    </g>
    <g transform="translate(-1246,-366) scale(1,1)">
      <rect fill="#ffffff" stroke="none" x="1480" y="1088" width="704" height="688"/>
    </g>
    <g transform="translate(-1246,-366) scale(1,1)">
      <path fill="none" stroke="#000000" d="M 1480 1088 L 2184 1088 L 2184 1776 L 1480 1776 L 1480 1088 Z Z"
            stroke-miterlimit="10"/>
    </g>
    <g transform="translate(-1246,-366) scale(1,1)">
      <g>
        <path fill="none" stroke="none"/>
        <text fill="#000000" stroke="none" font-family="Arial" font-size="13px" font-style="normal" font-weight="bold"
              text-decoration="none" x="1798.049560546875" y="1107.5">Assist Desk
        </text>
      </g>
    </g>
    <g transform="translate(-1246,-366) scale(1,1)">
      <path fill="#ffffff" stroke="none"
            d="M 2506.7711667258523 1497.6799999999998 C 2506.7711667258523 1492.8861679359998 2510.6570090507976 1489 2515.450439453125 1489 C 2520.2438698554524 1489 2524.1297121803977 1492.8861679359998 2524.1297121803977 1497.6799999999998 C 2524.1297121803977 1502.473832064 2520.2438698554524 1506.36 2515.450439453125 1506.36 C 2510.6570090507976 1506.36 2506.7711667258523 1502.473832064 2506.7711667258523 1497.6799999999998 Z"/>
    </g>
    <g transform="translate(-1246,-366) scale(1,1)">
      <path fill="none" stroke="#000000"
            d="M 2506.7711667258523 1497.6799999999998 C 2506.7711667258523 1492.8861679359998 2510.6570090507976 1489 2515.450439453125 1489 C 2520.2438698554524 1489 2524.1297121803977 1492.8861679359998 2524.1297121803977 1497.6799999999998 C 2524.1297121803977 1502.473832064 2520.2438698554524 1506.36 2515.450439453125 1506.36 C 2510.6570090507976 1506.36 2506.7711667258523 1502.473832064 2506.7711667258523 1497.6799999999998 Z"
            stroke-miterlimit="10"/>
    </g>
    <g transform="translate(-1246,-366) scale(1,1)">
      <path fill="none" stroke="#000000" d="M 2515.450439453125 1506.36 L 2515.450439453125 1523.64"
            stroke-miterlimit="10"/>
    </g>
    <g transform="translate(-1246,-366) scale(1,1)">
      <path fill="none" stroke="#000000" d="M 2506.2606212713067 1512.84 L 2524.6402576349433 1512.84"
            stroke-miterlimit="10"/>
    </g>
    <g transform="translate(-1246,-366) scale(1,1)">
      <path fill="none" stroke="#000000" d="M 2515.450439453125 1523.64 L 2502.6868030894884 1541"
            stroke-miterlimit="10"/>
    </g>
    <g transform="translate(-1246,-366) scale(1,1)">
      <path fill="none" stroke="#000000" d="M 2515.450439453125 1523.64 L 2528.2140758167616 1541"
            stroke-miterlimit="10"/>
    </g>
    <g transform="translate(-1246,-366) scale(1,1)">
      <g>
        <path fill="none" stroke="none"/>
        <text fill="#000000" stroke="none" font-family="Arial" font-size="13px" font-style="normal" font-weight="bold"
              text-decoration="none" x="2472.09912109375" y="1561.5">Assited Mentor
        </text>
      </g>
    </g>
    <g transform="translate(-1246,-366) scale(1,1)">
      <path fill="#ffffff" stroke="none"
            d="M 2350.1202878196023 921.6800000000001 C 2350.1202878196023 916.8861679360001 2354.0061301445476 913 2358.799560546875 913 C 2363.5929909492024 913 2367.4788332741477 916.8861679360001 2367.4788332741477 921.6800000000001 C 2367.4788332741477 926.473832064 2363.5929909492024 930.36 2358.799560546875 930.36 C 2354.0061301445476 930.36 2350.1202878196023 926.473832064 2350.1202878196023 921.6800000000001 Z"/>
    </g>
    <g transform="translate(-1246,-366) scale(1,1)">
      <path fill="none" stroke="#000000"
            d="M 2350.1202878196023 921.6800000000001 C 2350.1202878196023 916.8861679360001 2354.0061301445476 913 2358.799560546875 913 C 2363.5929909492024 913 2367.4788332741477 916.8861679360001 2367.4788332741477 921.6800000000001 C 2367.4788332741477 926.473832064 2363.5929909492024 930.36 2358.799560546875 930.36 C 2354.0061301445476 930.36 2350.1202878196023 926.473832064 2350.1202878196023 921.6800000000001 Z"
            stroke-miterlimit="10"/>
    </g>
    <g transform="translate(-1246,-366) scale(1,1)">
      <path fill="none" stroke="#000000" d="M 2358.799560546875 930.36 L 2358.799560546875 947.64"
            stroke-miterlimit="10"/>
    </g>
    <g transform="translate(-1246,-366) scale(1,1)">
      <path fill="none" stroke="#000000" d="M 2349.6097423650567 936.84 L 2367.9893787286933 936.84"
            stroke-miterlimit="10"/>
    </g>
    <g transform="translate(-1246,-366) scale(1,1)">
      <path fill="none" stroke="#000000" d="M 2358.799560546875 947.64 L 2346.0359241832384 965"
            stroke-miterlimit="10"/>
    </g>
    <g transform="translate(-1246,-366) scale(1,1)">
      <path fill="none" stroke="#000000" d="M 2358.799560546875 947.64 L 2371.5631969105116 965"
            stroke-miterlimit="10"/>
    </g>
    <g transform="translate(-1246,-366) scale(1,1)">
      <g>
        <path fill="none" stroke="none"/>
        <text fill="#000000" stroke="none" font-family="Arial" font-size="13px" font-style="normal" font-weight="bold"
              text-decoration="none" x="2327.00732421875" y="985.5">Mentor Bot
        </text>
      </g>
    </g>
    <g transform="translate(-1246,-366) scale(1,1)">
      <path fill="#C0C0C0" stroke="none"
            d="M 1583 895 C 1583 881.7451648 1619.0410736 871 1663.5 871 C 1707.9589264 871 1744 881.7451648 1744 895 C 1744 908.2548352 1707.9589264 919 1663.5 919 C 1619.0410736 919 1583 908.2548352 1583 895 Z"
            opacity="0.2"/>
    </g>
    <g transform="translate(-1246,-366) scale(1,1)">
      <path fill="#ffffff" stroke="none"
            d="M 1576 888 C 1576 874.7451648 1612.0410736 864 1656.5 864 C 1700.9589264 864 1737 874.7451648 1737 888 C 1737 901.2548352 1700.9589264 912 1656.5 912 C 1612.0410736 912 1576 901.2548352 1576 888 Z"/>
    </g>
    <g transform="translate(-1246,-366) scale(1,1)">
      <path fill="none" stroke="#000000"
            d="M 1576 888 C 1576 874.7451648 1612.0410736 864 1656.5 864 C 1700.9589264 864 1737 874.7451648 1737 888 C 1737 901.2548352 1700.9589264 912 1656.5 912 C 1612.0410736 912 1576 901.2548352 1576 888 Z"
            stroke-miterlimit="10"/>
    </g>
    <g transform="translate(-1246,-366) scale(1,1)">
      <g>
        <path fill="none" stroke="none"/>
        <text fill="#000000" stroke="none" font-family="Arial" font-size="13px" font-style="normal" font-weight="bold"
              text-decoration="none" x="1609.8955078125" y="895">Enroll to Cource
        </text>
      </g>
    </g>
    <g transform="translate(-1246,-366) scale(1,1)">
      <path fill="#ffffff" stroke="none"
            d="M 1311.4843014914773 1497.6799999999998 C 1311.4843014914773 1492.8861679359998 1315.3701438164228 1489 1320.16357421875 1489 C 1324.9570046210772 1489 1328.8428469460227 1492.8861679359998 1328.8428469460227 1497.6799999999998 C 1328.8428469460227 1502.473832064 1324.9570046210772 1506.36 1320.16357421875 1506.36 C 1315.3701438164228 1506.36 1311.4843014914773 1502.473832064 1311.4843014914773 1497.6799999999998 Z"/>
    </g>
    <g transform="translate(-1246,-366) scale(1,1)">
      <path fill="none" stroke="#000000"
            d="M 1311.4843014914773 1497.6799999999998 C 1311.4843014914773 1492.8861679359998 1315.3701438164228 1489 1320.16357421875 1489 C 1324.9570046210772 1489 1328.8428469460227 1492.8861679359998 1328.8428469460227 1497.6799999999998 C 1328.8428469460227 1502.473832064 1324.9570046210772 1506.36 1320.16357421875 1506.36 C 1315.3701438164228 1506.36 1311.4843014914773 1502.473832064 1311.4843014914773 1497.6799999999998 Z"
            stroke-miterlimit="10"/>
    </g>
    <g transform="translate(-1246,-366) scale(1,1)">
      <path fill="none" stroke="#000000" d="M 1320.16357421875 1506.36 L 1320.16357421875 1523.64"
            stroke-miterlimit="10"/>
    </g>
    <g transform="translate(-1246,-366) scale(1,1)">
      <path fill="none" stroke="#000000" d="M 1310.9737560369317 1512.84 L 1329.3533924005683 1512.84"
            stroke-miterlimit="10"/>
    </g>
    <g transform="translate(-1246,-366) scale(1,1)">
      <path fill="none" stroke="#000000" d="M 1320.16357421875 1523.64 L 1307.3999378551136 1541"
            stroke-miterlimit="10"/>
    </g>
    <g transform="translate(-1246,-366) scale(1,1)">
      <path fill="none" stroke="#000000" d="M 1320.16357421875 1523.64 L 1332.9272105823864 1541"
            stroke-miterlimit="10"/>
    </g>
    <g transform="translate(-1246,-366) scale(1,1)">
      <g>
        <path fill="none" stroke="none"/>
        <text fill="#000000" stroke="none" font-family="Arial" font-size="13px" font-style="normal" font-weight="bold"
              text-decoration="none" x="1271.994384765625" y="1561.5">Assisted Trainee
        </text>
      </g>
    </g>
    <g transform="translate(-1246,-366) scale(1,1)">
      <path fill="#C0C0C0" stroke="none"
            d="M 1735 1915.5 C 1735 1899.7598832 1770.3695008 1887 1814 1887 C 1857.6304992 1887 1893 1899.7598832 1893 1915.5 C 1893 1931.2401168 1857.6304992 1944 1814 1944 C 1770.3695008 1944 1735 1931.2401168 1735 1915.5 Z"
            opacity="0.2"/>
    </g>
    <g transform="translate(-1246,-366) scale(1,1)">
      <path fill="#ffffff" stroke="none"
            d="M 1728 1908.5 C 1728 1892.7598832 1763.3695008 1880 1807 1880 C 1850.6304992 1880 1886 1892.7598832 1886 1908.5 C 1886 1924.2401168 1850.6304992 1937 1807 1937 C 1763.3695008 1937 1728 1924.2401168 1728 1908.5 Z"/>
    </g>
    <g transform="translate(-1246,-366) scale(1,1)">
      <path fill="none" stroke="#000000"
            d="M 1728 1908.5 C 1728 1892.7598832 1763.3695008 1880 1807 1880 C 1850.6304992 1880 1886 1892.7598832 1886 1908.5 C 1886 1924.2401168 1850.6304992 1937 1807 1937 C 1763.3695008 1937 1728 1924.2401168 1728 1908.5 Z"
            stroke-miterlimit="10"/>
    </g>
    <g transform="translate(-1246,-366) scale(1,1)">
      <g>
        <path fill="none" stroke="none"/>
        <text fill="#000000" stroke="none" font-family="Arial" font-size="13px" font-style="normal" font-weight="bold"
              text-decoration="none" x="1759.192626953125" y="1915.5">Configure Wallet
        </text>
      </g>
    </g>
    <g transform="translate(-1246,-366) scale(1,1)">
      <path fill="none" stroke="#000000" d="M 1383 1987 L 1727 1923" stroke-miterlimit="10"/>
    </g>
    <g transform="translate(-1246,-366) scale(1,1)">
      <path fill="#C0C0C0" stroke="none"
            d="M 1559 2035 C 1559 2019.5360256 1594.817216 2007 1639 2007 C 1683.182784 2007 1719 2019.5360256 1719 2035 C 1719 2050.4639744 1683.182784 2063 1639 2063 C 1594.817216 2063 1559 2050.4639744 1559 2035 Z"
            opacity="0.2"/>
    </g>
    <g transform="translate(-1246,-366) scale(1,1)">
      <path fill="#ffffff" stroke="none"
            d="M 1552 2028 C 1552 2012.5360256 1587.817216 2000 1632 2000 C 1676.182784 2000 1712 2012.5360256 1712 2028 C 1712 2043.4639744 1676.182784 2056 1632 2056 C 1587.817216 2056 1552 2043.4639744 1552 2028 Z"/>
    </g>
    <g transform="translate(-1246,-366) scale(1,1)">
      <path fill="none" stroke="#000000"
            d="M 1552 2028 C 1552 2012.5360256 1587.817216 2000 1632 2000 C 1676.182784 2000 1712 2012.5360256 1712 2028 C 1712 2043.4639744 1676.182784 2056 1632 2056 C 1587.817216 2056 1552 2043.4639744 1552 2028 Z"
            stroke-miterlimit="10"/>
    </g>
    <g transform="translate(-1246,-366) scale(1,1)">
      <g>
        <path fill="none" stroke="none"/>
        <text fill="#000000" stroke="none" font-family="Arial" font-size="13px" font-style="normal" font-weight="bold"
              text-decoration="none" x="1598.398681640625" y="2035">Buy Tokens
        </text>
      </g>
    </g>
    <g transform="translate(-1246,-366) scale(1,1)">
      <path fill="none" stroke="#000000" d="M 1551 2021 L 1383 2005" stroke-miterlimit="10"/>
    </g>
    <g transform="translate(-1246,-366) scale(1,1)">
      <path fill="#C0C0C0" stroke="none"
            d="M 1799 1183 C 1799 1169.7451648 1873.3207232 1159 1965 1159 C 2056.6792768 1159 2131 1169.7451648 2131 1183 C 2131 1196.2548352 2056.6792768 1207 1965 1207 C 1873.3207232 1207 1799 1196.2548352 1799 1183 Z"
            opacity="0.2"/>
    </g>
    <g transform="translate(-1246,-366) scale(1,1)">
      <path fill="#ffffff" stroke="none"
            d="M 1792 1176 C 1792 1162.7451648 1866.3207232 1152 1958 1152 C 2049.6792768 1152 2124 1162.7451648 2124 1176 C 2124 1189.2548352 2049.6792768 1200 1958 1200 C 1866.3207232 1200 1792 1189.2548352 1792 1176 Z"/>
    </g>
    <g transform="translate(-1246,-366) scale(1,1)">
      <path fill="none" stroke="#000000"
            d="M 1792 1176 C 1792 1162.7451648 1866.3207232 1152 1958 1152 C 2049.6792768 1152 2124 1162.7451648 2124 1176 C 2124 1189.2548352 2049.6792768 1200 1958 1200 C 1866.3207232 1200 1792 1189.2548352 1792 1176 Z"
            stroke-miterlimit="10"/>
    </g>
    <g transform="translate(-1246,-366) scale(1,1)">
      <g>
        <path fill="none" stroke="none"/>
        <text fill="#000000" stroke="none" font-family="Arial" font-size="13px" font-style="normal" font-weight="bold"
              text-decoration="none" x="1853.285888671875" y="1183">Approve 'Assist Me' Orders Creation
        </text>
      </g>
    </g>
    <g transform="translate(-1246,-366) scale(1,1)">
      <path fill="#C0C0C0" stroke="none"
            d="M 1783 1267 C 1783 1251.5360256 1860.9024448 1239 1957 1239 C 2053.0975552 1239 2131 1251.5360256 2131 1267 C 2131 1282.4639744 2053.0975552 1295 1957 1295 C 1860.9024448 1295 1783 1282.4639744 1783 1267 Z"
            opacity="0.2"/>
    </g>
    <g transform="translate(-1246,-366) scale(1,1)">
      <path fill="#ffffff" stroke="none"
            d="M 1776 1260 C 1776 1244.5360256 1853.9024448 1232 1950 1232 C 2046.0975552 1232 2124 1244.5360256 2124 1260 C 2124 1275.4639744 2046.0975552 1288 1950 1288 C 1853.9024448 1288 1776 1275.4639744 1776 1260 Z"/>
    </g>
    <g transform="translate(-1246,-366) scale(1,1)">
      <path fill="none" stroke="#000000"
            d="M 1776 1260 C 1776 1244.5360256 1853.9024448 1232 1950 1232 C 2046.0975552 1232 2124 1244.5360256 2124 1260 C 2124 1275.4639744 2046.0975552 1288 1950 1288 C 1853.9024448 1288 1776 1275.4639744 1776 1260 Z"
            stroke-miterlimit="10"/>
    </g>
    <g transform="translate(-1246,-366) scale(1,1)">
      <g>
        <path fill="none" stroke="none"/>
        <text fill="#000000" stroke="none" font-family="Arial" font-size="13px" font-style="normal" font-weight="bold"
              text-decoration="none" x="1840.226806640625" y="1267">Approve 'Assist Me' Order Completion
        </text>
      </g>
    </g>
    <g transform="translate(-1246,-366) scale(1,1)">
      <path fill="#C0C0C0" stroke="none"
            d="M 1527 1539 C 1527 1523.5360256 1579.8303936 1511 1645 1511 C 1710.1696064 1511 1763 1523.5360256 1763 1539 C 1763 1554.4639744 1710.1696064 1567 1645 1567 C 1579.8303936 1567 1527 1554.4639744 1527 1539 Z"
            opacity="0.2"/>
    </g>
    <g transform="translate(-1246,-366) scale(1,1)">
      <path fill="#ffffff" stroke="none"
            d="M 1520 1532 C 1520 1516.5360256 1572.8303936 1504 1638 1504 C 1703.1696064 1504 1756 1516.5360256 1756 1532 C 1756 1547.4639744 1703.1696064 1560 1638 1560 C 1572.8303936 1560 1520 1547.4639744 1520 1532 Z"/>
    </g>
    <g transform="translate(-1246,-366) scale(1,1)">
      <path fill="none" stroke="#000000"
            d="M 1520 1532 C 1520 1516.5360256 1572.8303936 1504 1638 1504 C 1703.1696064 1504 1756 1516.5360256 1756 1532 C 1756 1547.4639744 1703.1696064 1560 1638 1560 C 1572.8303936 1560 1520 1547.4639744 1520 1532 Z"
            stroke-miterlimit="10"/>
    </g>
    <g transform="translate(-1246,-366) scale(1,1)">
      <g>
        <path fill="none" stroke="none"/>
        <text fill="#000000" stroke="none" font-family="Arial" font-size="13px" font-style="normal" font-weight="bold"
              text-decoration="none" x="1569.054931640625" y="1539">Place 'Assist Me' Order
        </text>
      </g>
    </g>
    <g transform="translate(-1246,-366) scale(1,1)">
      <path fill="none" stroke="#000000" d="M 1377 1528 L 1519 1530" stroke-miterlimit="10"/>
    </g>
    <g transform="translate(-1246,-366) scale(1,1)">
      <path fill="#C0C0C0" stroke="none"
            d="M 1855 1543 C 1855 1529.7451648 1912.7552608 1519 1984 1519 C 2055.2447392 1519 2113 1529.7451648 2113 1543 C 2113 1556.2548352 2055.2447392 1567 1984 1567 C 1912.7552608 1567 1855 1556.2548352 1855 1543 Z"
            opacity="0.2"/>
    </g>
    <g transform="translate(-1246,-366) scale(1,1)">
      <path fill="#ffffff" stroke="none"
            d="M 1848 1536 C 1848 1522.7451648 1905.7552608 1512 1977 1512 C 2048.2447392 1512 2106 1522.7451648 2106 1536 C 2106 1549.2548352 2048.2447392 1560 1977 1560 C 1905.7552608 1560 1848 1549.2548352 1848 1536 Z"/>
    </g>
    <g transform="translate(-1246,-366) scale(1,1)">
      <path fill="none" stroke="#000000"
            d="M 1848 1536 C 1848 1522.7451648 1905.7552608 1512 1977 1512 C 2048.2447392 1512 2106 1522.7451648 2106 1536 C 2106 1549.2548352 2048.2447392 1560 1977 1560 C 1905.7552608 1560 1848 1549.2548352 1848 1536 Z"
            stroke-miterlimit="10"/>
    </g>
    <g transform="translate(-1246,-366) scale(1,1)">
      <g>
        <path fill="none" stroke="none"/>
        <text fill="#000000" stroke="none" font-family="Arial" font-size="13px" font-style="normal" font-weight="bold"
              text-decoration="none" x="1898.3017578125" y="1543">Complete 'Assist Me' Order
        </text>
      </g>
    </g>
    <g transform="translate(-1246,-366) scale(1,1)">
      <path fill="none" stroke="#000000" d="M 2463 1528 L 2107 1534" stroke-miterlimit="10"/>
    </g>
    <g transform="translate(-1246,-366) scale(1,1)">
      <path fill="#C0C0C0" stroke="none"
            d="M 1791 975 C 1791 961.7451648 1876.5136032 951 1982 951 C 2087.4863968 951 2173 961.7451648 2173 975 C 2173 988.2548352 2087.4863968 999 1982 999 C 1876.5136032 999 1791 988.2548352 1791 975 Z"
            opacity="0.2"/>
    </g>
    <g transform="translate(-1246,-366) scale(1,1)">
      <path fill="#ffffff" stroke="none"
            d="M 1784 968 C 1784 954.7451648 1869.5136032 944 1975 944 C 2080.4863968 944 2166 954.7451648 2166 968 C 2166 981.2548352 2080.4863968 992 1975 992 C 1869.5136032 992 1784 981.2548352 1784 968 Z"/>
    </g>
    <g transform="translate(-1246,-366) scale(1,1)">
      <path fill="none" stroke="#000000"
            d="M 1784 968 C 1784 954.7451648 1869.5136032 944 1975 944 C 2080.4863968 944 2166 954.7451648 2166 968 C 2166 981.2548352 2080.4863968 992 1975 992 C 1869.5136032 992 1784 981.2548352 1784 968 Z"
            stroke-miterlimit="10"/>
    </g>
    <g transform="translate(-1246,-366) scale(1,1)">
      <g>
        <path fill="none" stroke="none"/>
        <text fill="#000000" stroke="none" font-family="Arial" font-size="13px" font-style="normal" font-weight="bold"
              text-decoration="none" x="1929.115966796875" y="975">Prepare Cource
        </text>
      </g>
    </g>
    <g transform="translate(-1246,-366) scale(1,1)">
      <path fill="none" stroke="#000000" d="M 2319 953 L 2167 959" stroke-miterlimit="10"/>
    </g>
    <g transform="translate(-1246,-366) scale(1,1)">
      <path fill="#ffffff" stroke="none"
            d="M 1314.5834225852273 737.6800000000001 C 1314.5834225852273 732.8861679360001 1318.4692649101728 729 1323.2626953125 729 C 1328.0561257148272 729 1331.9419680397727 732.8861679360001 1331.9419680397727 737.6800000000001 C 1331.9419680397727 742.473832064 1328.0561257148272 746.36 1323.2626953125 746.36 C 1318.4692649101728 746.36 1314.5834225852273 742.473832064 1314.5834225852273 737.6800000000001 Z"/>
    </g>
    <g transform="translate(-1246,-366) scale(1,1)">
      <path fill="none" stroke="#000000"
            d="M 1314.5834225852273 737.6800000000001 C 1314.5834225852273 732.8861679360001 1318.4692649101728 729 1323.2626953125 729 C 1328.0561257148272 729 1331.9419680397727 732.8861679360001 1331.9419680397727 737.6800000000001 C 1331.9419680397727 742.473832064 1328.0561257148272 746.36 1323.2626953125 746.36 C 1318.4692649101728 746.36 1314.5834225852273 742.473832064 1314.5834225852273 737.6800000000001 Z"
            stroke-miterlimit="10"/>
    </g>
    <g transform="translate(-1246,-366) scale(1,1)">
      <path fill="none" stroke="#000000" d="M 1323.2626953125 746.36 L 1323.2626953125 763.64" stroke-miterlimit="10"/>
    </g>
    <g transform="translate(-1246,-366) scale(1,1)">
      <path fill="none" stroke="#000000" d="M 1314.0728771306817 752.84 L 1332.4525134943183 752.84"
            stroke-miterlimit="10"/>
    </g>
    <g transform="translate(-1246,-366) scale(1,1)">
      <path fill="none" stroke="#000000" d="M 1323.2626953125 763.64 L 1310.4990589488636 781" stroke-miterlimit="10"/>
    </g>
    <g transform="translate(-1246,-366) scale(1,1)">
      <path fill="none" stroke="#000000" d="M 1323.2626953125 763.64 L 1336.0263316761364 781" stroke-miterlimit="10"/>
    </g>
    <g transform="translate(-1246,-366) scale(1,1)">
      <g>
        <path fill="none" stroke="none"/>
        <text fill="#000000" stroke="none" font-family="Arial" font-size="13px" font-style="normal" font-weight="bold"
              text-decoration="none" x="1301.46484375" y="801.5">Trainee
        </text>
      </g>
    </g>
    <g transform="translate(-1246,-366) scale(1,1)">
      <path fill="none" stroke="#000000" d="M 1352 777 L 1587 863" stroke-miterlimit="10"/>
    </g>
    <g transform="translate(-1246,-366) scale(1,1)">
      <path fill="#C0C0C0" stroke="none"
            d="M 1575 771 C 1575 755.5360256 1619.3238048 743 1674 743 C 1728.6761952 743 1773 755.5360256 1773 771 C 1773 786.4639744 1728.6761952 799 1674 799 C 1619.3238048 799 1575 786.4639744 1575 771 Z"
            opacity="0.2"/>
    </g>
    <g transform="translate(-1246,-366) scale(1,1)">
      <path fill="#ffffff" stroke="none"
            d="M 1568 764 C 1568 748.5360256 1612.3238048 736 1667 736 C 1721.6761952 736 1766 748.5360256 1766 764 C 1766 779.4639744 1721.6761952 792 1667 792 C 1612.3238048 792 1568 779.4639744 1568 764 Z"/>
    </g>
    <g transform="translate(-1246,-366) scale(1,1)">
      <path fill="none" stroke="#000000"
            d="M 1568 764 C 1568 748.5360256 1612.3238048 736 1667 736 C 1721.6761952 736 1766 748.5360256 1766 764 C 1766 779.4639744 1721.6761952 792 1667 792 C 1612.3238048 792 1568 779.4639744 1568 764 Z"
            stroke-miterlimit="10"/>
    </g>
    <g transform="translate(-1246,-366) scale(1,1)">
      <g>
        <path fill="none" stroke="none"/>
        <text fill="#000000" stroke="none" font-family="Arial" font-size="13px" font-style="normal" font-weight="bold"
              text-decoration="none" x="1605.951416015625" y="771">Complete Excercises
        </text>
      </g>
    </g>
    <g transform="translate(-1246,-366) scale(1,1)">
      <path fill="none" stroke="#000000" d="M 1352 767 L 1567 765" stroke-miterlimit="10"/>
    </g>
    <g transform="translate(-1246,-366) scale(1,1)">
      <path fill="#C0C0C0" stroke="none"
            d="M 1887 866.5 C 1887 851.312168 1936.9202448 839 1998.5 839 C 2060.0797552 839 2110 851.312168 2110 866.5 C 2110 881.687832 2060.0797552 894 1998.5 894 C 1936.9202448 894 1887 881.687832 1887 866.5 Z"
            opacity="0.2"/>
    </g>
    <g transform="translate(-1246,-366) scale(1,1)">
      <path fill="#ffffff" stroke="none"
            d="M 1880 859.5 C 1880 844.312168 1929.9202448 832 1991.5 832 C 2053.0797552 832 2103 844.312168 2103 859.5 C 2103 874.687832 2053.0797552 887 1991.5 887 C 1929.9202448 887 1880 874.687832 1880 859.5 Z"/>
    </g>
    <g transform="translate(-1246,-366) scale(1,1)">
      <path fill="none" stroke="#000000"
            d="M 1880 859.5 C 1880 844.312168 1929.9202448 832 1991.5 832 C 2053.0797552 832 2103 844.312168 2103 859.5 C 2103 874.687832 2053.0797552 887 1991.5 887 C 1929.9202448 887 1880 874.687832 1880 859.5 Z"
            stroke-miterlimit="10"/>
    </g>
    <g transform="translate(-1246,-366) scale(1,1)">
      <g>
        <path fill="none" stroke="none"/>
        <text fill="#000000" stroke="none" font-family="Arial" font-size="13px" font-style="normal" font-weight="bold"
              text-decoration="none" x="1940.556884765625" y="866.5">Provide Guidlines
        </text>
      </g>
    </g>
    <g transform="translate(-1246,-366) scale(1,1)">
      <path fill="none" stroke="#000000" d="M 2104 887 L 2319 941" stroke-miterlimit="10"/>
    </g>
    <g transform="translate(-1246,-366) scale(1,1)">
      <path fill="#C0C0C0" stroke="none"
            d="M 1879 714.5 C 1879 699.312168 1934.2928272 687 2002.5 687 C 2070.7071728 687 2126 699.312168 2126 714.5 C 2126 729.687832 2070.7071728 742 2002.5 742 C 1934.2928272 742 1879 729.687832 1879 714.5 Z"
            opacity="0.2"/>
    </g>
    <g transform="translate(-1246,-366) scale(1,1)">
      <path fill="#ffffff" stroke="none"
            d="M 1872 707.5 C 1872 692.312168 1927.2928272 680 1995.5 680 C 2063.7071728 680 2119 692.312168 2119 707.5 C 2119 722.687832 2063.7071728 735 1995.5 735 C 1927.2928272 735 1872 722.687832 1872 707.5 Z"/>
    </g>
    <g transform="translate(-1246,-366) scale(1,1)">
      <path fill="none" stroke="#000000"
            d="M 1872 707.5 C 1872 692.312168 1927.2928272 680 1995.5 680 C 2063.7071728 680 2119 692.312168 2119 707.5 C 2119 722.687832 2063.7071728 735 1995.5 735 C 1927.2928272 735 1872 722.687832 1872 707.5 Z"
            stroke-miterlimit="10"/>
    </g>
    <g transform="translate(-1246,-366) scale(1,1)">
      <g>
        <path fill="none" stroke="none"/>
        <text fill="#000000" stroke="none" font-family="Arial" font-size="13px" font-style="normal" font-weight="bold"
              text-decoration="none" x="1926.73583984375" y="714.5">Manage Trainees Tasks
        </text>
      </g>
    </g>
    <g transform="translate(-1246,-366) scale(1,1)">
      <path fill="none" stroke="#000000" d="M 2038 736 L 2319 925" stroke-miterlimit="10"/>
    </g>
    <g transform="translate(-1246,-366) scale(1,1)">
      <path fill="#ffffff" stroke="none"
            d="M 2501.8741818181816 459.21000000000004 C 2501.8741818181816 453.571172192 2506.407664530618 449 2512 449 C 2517.592335469382 449 2522.1258181818184 453.571172192 2522.1258181818184 459.21000000000004 C 2522.1258181818184 464.84882780800007 2517.592335469382 469.42 2512 469.42 C 2506.407664530618 469.42 2501.8741818181816 464.84882780800007 2501.8741818181816 459.21000000000004 Z"/>
    </g>
    <g transform="translate(-1246,-366) scale(1,1)">
      <path fill="none" stroke="#000000"
            d="M 2501.8741818181816 459.21000000000004 C 2501.8741818181816 453.571172192 2506.407664530618 449 2512 449 C 2517.592335469382 449 2522.1258181818184 453.571172192 2522.1258181818184 459.21000000000004 C 2522.1258181818184 464.84882780800007 2517.592335469382 469.42 2512 469.42 C 2506.407664530618 469.42 2501.8741818181816 464.84882780800007 2501.8741818181816 459.21000000000004 Z"
            stroke-miterlimit="10"/>
    </g>
    <g transform="translate(-1246,-366) scale(1,1)">
      <path fill="none" stroke="#000000" d="M 2512 469.42 L 2512 489.58" stroke-miterlimit="10"/>
    </g>
    <g transform="translate(-1246,-366) scale(1,1)">
      <path fill="none" stroke="#000000" d="M 2501.2785454545456 476.98 L 2522.7214545454544 476.98"
            stroke-miterlimit="10"/>
    </g>
    <g transform="translate(-1246,-366) scale(1,1)">
      <path fill="none" stroke="#000000" d="M 2512 489.58 L 2497.109090909091 510" stroke-miterlimit="10"/>
    </g>
    <g transform="translate(-1246,-366) scale(1,1)">
      <path fill="none" stroke="#000000" d="M 2512 489.58 L 2526.890909090909 510" stroke-miterlimit="10"/>
    </g>
    <g transform="translate(-1246,-366) scale(1,1)">
      <g>
        <path fill="none" stroke="none"/>
        <text fill="#000000" stroke="none" font-family="Arial" font-size="13px" font-style="normal" font-weight="bold"
              text-decoration="none" x="2491.77001953125" y="530.5">Mentor
        </text>
      </g>
    </g>
    <g transform="translate(-1246,-366) scale(1,1)">
      <path fill="#C0C0C0" stroke="none"
            d="M 1895 495 C 1895 477.3268864 1940.4430928 463 1996.5 463 C 2052.5569072 463 2098 477.3268864 2098 495 C 2098 512.6731136 2052.5569072 527 1996.5 527 C 1940.4430928 527 1895 512.6731136 1895 495 Z"
            opacity="0.2"/>
    </g>
    <g transform="translate(-1246,-366) scale(1,1)">
      <path fill="#ffffff" stroke="none"
            d="M 1888 488 C 1888 470.3268864 1933.4430928 456 1989.5 456 C 2045.5569072 456 2091 470.3268864 2091 488 C 2091 505.6731136 2045.5569072 520 1989.5 520 C 1933.4430928 520 1888 505.6731136 1888 488 Z"/>
    </g>
    <g transform="translate(-1246,-366) scale(1,1)">
      <path fill="none" stroke="#000000"
            d="M 1888 488 C 1888 470.3268864 1933.4430928 456 1989.5 456 C 2045.5569072 456 2091 470.3268864 2091 488 C 2091 505.6731136 2045.5569072 520 1989.5 520 C 1933.4430928 520 1888 505.6731136 1888 488 Z"
            stroke-miterlimit="10"/>
    </g>
    <g transform="translate(-1246,-366) scale(1,1)">
      <g>
        <path fill="none" stroke="none"/>
        <text fill="#000000" stroke="none" font-family="Arial" font-size="13px" font-style="normal" font-weight="bold"
              text-decoration="none" x="1925.921875" y="495">Perform Code Review
        </text>
      </g>
    </g>
    <g transform="translate(-1246,-366) scale(1,1)">
      <path fill="none" stroke="#000000" d="M 2092 489 L 2471 492" stroke-miterlimit="10"/>
    </g>
    <g transform="translate(-1246,-366) scale(1,1)">
      <path fill="#C0C0C0" stroke="none"
            d="M 1575 667 C 1575 651.5360256 1621.1146656 639 1678 639 C 1734.8853344 639 1781 651.5360256 1781 667 C 1781 682.4639744 1734.8853344 695 1678 695 C 1621.1146656 695 1575 682.4639744 1575 667 Z"
            opacity="0.2"/>
    </g>
    <g transform="translate(-1246,-366) scale(1,1)">
      <path fill="#ffffff" stroke="none"
            d="M 1568 660 C 1568 644.5360256 1614.1146656 632 1671 632 C 1727.8853344 632 1774 644.5360256 1774 660 C 1774 675.4639744 1727.8853344 688 1671 688 C 1614.1146656 688 1568 675.4639744 1568 660 Z"/>
    </g>
    <g transform="translate(-1246,-366) scale(1,1)">
      <path fill="none" stroke="#000000"
            d="M 1568 660 C 1568 644.5360256 1614.1146656 632 1671 632 C 1727.8853344 632 1774 644.5360256 1774 660 C 1774 675.4639744 1727.8853344 688 1671 688 C 1614.1146656 688 1568 675.4639744 1568 660 Z"
            stroke-miterlimit="10"/>
    </g>
    <g transform="translate(-1246,-366) scale(1,1)">
      <g>
        <path fill="none" stroke="none"/>
        <text fill="#000000" stroke="none" font-family="Arial" font-size="13px" font-style="normal" font-weight="bold"
              text-decoration="none" x="1606.01904296875" y="667">Create 'Help Me' issue
        </text>
      </g>
    </g>
    <g transform="translate(-1246,-366) scale(1,1)">
      <path fill="none" stroke="#000000" d="M 1352 758 L 1577 689" stroke-miterlimit="10"/>
    </g>
    <g transform="translate(-1246,-366) scale(1,1)">
      <path fill="#C0C0C0" stroke="none"
            d="M 1887 595 C 1887 575.1177472 1938.9349632 559 2003 559 C 2067.0650368 559 2119 575.1177472 2119 595 C 2119 614.8822528 2067.0650368 631 2003 631 C 1938.9349632 631 1887 614.8822528 1887 595 Z"
            opacity="0.2"/>
    </g>
    <g transform="translate(-1246,-366) scale(1,1)">
      <path fill="#ffffff" stroke="none"
            d="M 1880 588 C 1880 568.1177472 1931.9349632 552 1996 552 C 2060.0650368 552 2112 568.1177472 2112 588 C 2112 607.8822528 2060.0650368 624 1996 624 C 1931.9349632 624 1880 607.8822528 1880 588 Z"/>
    </g>
    <g transform="translate(-1246,-366) scale(1,1)">
      <path fill="none" stroke="#000000"
            d="M 1880 588 C 1880 568.1177472 1931.9349632 552 1996 552 C 2060.0650368 552 2112 568.1177472 2112 588 C 2112 607.8822528 2060.0650368 624 1996 624 C 1931.9349632 624 1880 607.8822528 1880 588 Z"
            stroke-miterlimit="10"/>
    </g>
    <g transform="translate(-1246,-366) scale(1,1)">
      <g>
        <path fill="none" stroke="none"/>
        <text fill="#000000" stroke="none" font-family="Arial" font-size="13px" font-style="normal" font-weight="bold"
              text-decoration="none" x="1934.26904296875" y="595">Solve 'Help Me' issue
        </text>
      </g>
    </g>
    <g transform="translate(-1246,-366) scale(1,1)">
      <path fill="none" stroke="#000000" d="M 2113 566 L 2471 500" stroke-miterlimit="10"/>
    </g>
    <g transform="translate(-1246,-366) scale(1,1)">
      <path fill="#C0C0C0" stroke="none"
            d="M 1535 1412 C 1535 1391.5654624 1583.3532416 1375 1643 1375 C 1702.6467584 1375 1751 1391.5654624 1751 1412 C 1751 1432.4345376 1702.6467584 1449 1643 1449 C 1583.3532416 1449 1535 1432.4345376 1535 1412 Z"
            opacity="0.2"/>
    </g>
    <g transform="translate(-1246,-366) scale(1,1)">
      <path fill="#ffffff" stroke="none"
            d="M 1528 1405 C 1528 1384.5654624 1576.3532416 1368 1636 1368 C 1695.6467584 1368 1744 1384.5654624 1744 1405 C 1744 1425.4345376 1695.6467584 1442 1636 1442 C 1576.3532416 1442 1528 1425.4345376 1528 1405 Z"/>
    </g>
    <g transform="translate(-1246,-366) scale(1,1)">
      <path fill="none" stroke="#000000"
            d="M 1528 1405 C 1528 1384.5654624 1576.3532416 1368 1636 1368 C 1695.6467584 1368 1744 1384.5654624 1744 1405 C 1744 1425.4345376 1695.6467584 1442 1636 1442 C 1576.3532416 1442 1528 1425.4345376 1528 1405 Z"
            stroke-miterlimit="10"/>
    </g>
    <g transform="translate(-1246,-366) scale(1,1)">
      <g>
        <path fill="none" stroke="none"/>
        <text fill="#000000" stroke="none" font-family="Arial" font-size="13px" font-style="normal" font-weight="bold"
              text-decoration="none" x="1570.61279296875" y="1412">Pay for Order Creation
        </text>
      </g>
    </g>
    <g transform="translate(-1246,-366) scale(1,1)">
      <path fill="none" stroke="#000000" d="M 1638 1503 L 1637 1443" stroke-miterlimit="10" stroke-dasharray="3"/>
    </g>
    <g transform="translate(-1246,-366) scale(1,1)">
      <path fill="none" stroke="#000000"
            d="M 1641.3782876170303 1453.0911147819534 L 1637 1443 L 1632.960421171936 1453.2314125560383"
            stroke-miterlimit="10"/>
    </g>
    <g transform="translate(-1246,-366) scale(1,1)">
      <g>
        <path fill="none" stroke="none"/>
        <text fill="#000000" stroke="none" font-family="Arial" font-size="13px" font-style="normal" font-weight="normal"
              text-decoration="none" x="1579.5" y="1478.5">«include»
        </text>
      </g>
    </g>
    <g transform="translate(-1246,-366) scale(1,1)">
      <path fill="#ffffff" stroke="none"
            d="M 2350.8956784446023 1193.6799999999998 C 2350.8956784446023 1188.8861679359998 2354.7815207695476 1185 2359.574951171875 1185 C 2364.3683815742024 1185 2368.2542238991477 1188.8861679359998 2368.2542238991477 1193.6799999999998 C 2368.2542238991477 1198.473832064 2364.3683815742024 1202.36 2359.574951171875 1202.36 C 2354.7815207695476 1202.36 2350.8956784446023 1198.473832064 2350.8956784446023 1193.6799999999998 Z"/>
    </g>
    <g transform="translate(-1246,-366) scale(1,1)">
      <path fill="none" stroke="#000000"
            d="M 2350.8956784446023 1193.6799999999998 C 2350.8956784446023 1188.8861679359998 2354.7815207695476 1185 2359.574951171875 1185 C 2364.3683815742024 1185 2368.2542238991477 1188.8861679359998 2368.2542238991477 1193.6799999999998 C 2368.2542238991477 1198.473832064 2364.3683815742024 1202.36 2359.574951171875 1202.36 C 2354.7815207695476 1202.36 2350.8956784446023 1198.473832064 2350.8956784446023 1193.6799999999998 Z"
            stroke-miterlimit="10"/>
    </g>
    <g transform="translate(-1246,-366) scale(1,1)">
      <path fill="none" stroke="#000000" d="M 2359.574951171875 1202.36 L 2359.574951171875 1219.64"
            stroke-miterlimit="10"/>
    </g>
    <g transform="translate(-1246,-366) scale(1,1)">
      <path fill="none" stroke="#000000" d="M 2350.3851329900567 1208.84 L 2368.7647693536933 1208.84"
            stroke-miterlimit="10"/>
    </g>
    <g transform="translate(-1246,-366) scale(1,1)">
      <path fill="none" stroke="#000000" d="M 2359.574951171875 1219.64 L 2346.8113148082384 1237"
            stroke-miterlimit="10"/>
    </g>
    <g transform="translate(-1246,-366) scale(1,1)">
      <path fill="none" stroke="#000000" d="M 2359.574951171875 1219.64 L 2372.3385875355116 1237"
            stroke-miterlimit="10"/>
    </g>
    <g transform="translate(-1246,-366) scale(1,1)">
      <g>
        <path fill="none" stroke="none"/>
        <text fill="#000000" stroke="none" font-family="Arial" font-size="13px" font-style="normal" font-weight="bold"
              text-decoration="none" x="2282.6318359375" y="1257.5">Assist Desk Moderator Bot
        </text>
      </g>
    </g>
    <g transform="translate(-1246,-366) scale(1,1)">
      <path fill="none" stroke="#000000" d="M 2359 1183 L 2358 992" stroke-miterlimit="10"/>
    </g>
    <g transform="translate(-1246,-366) scale(1,1)">
      <path fill="#FFFFFF" stroke="none"
            d="M 2366.525334110145 1012.2809930306777 L 2358 992 L 2349.6874938599753 1012.3691492623539"/>
    </g>
    <g transform="translate(-1246,-366) scale(1,1)">
      <path fill="none" stroke="#000000"
            d="M 2366.525334110145 1012.2809930306777 L 2358 992 L 2349.6874938599753 1012.3691492623539 L 2366.525334110145 1012.2809930306777"
            stroke-miterlimit="10"/>
    </g>
    <g transform="translate(-1246,-366) scale(1,1)">
      <path fill="none" stroke="#000000" d="M 2515 1487 L 2512 537" stroke-miterlimit="10"/>
    </g>
    <g transform="translate(-1246,-366) scale(1,1)">
      <path fill="#FFFFFF" stroke="none"
            d="M 2520.4831785286306 557.2986620754025 L 2512 537 L 2503.64519146108 557.351834666142"/>
    </g>
    <g transform="translate(-1246,-366) scale(1,1)">
      <path fill="none" stroke="#000000"
            d="M 2520.4831785286306 557.2986620754025 L 2512 537 L 2503.64519146108 557.351834666142 L 2520.4831785286306 557.2986620754025"
            stroke-miterlimit="10"/>
    </g>
    <g transform="translate(-1246,-366) scale(1,1)">
      <path fill="none" stroke="#000000" d="M 1320 1487 L 1323 808" stroke-miterlimit="10"/>
    </g>
    <g transform="translate(-1246,-366) scale(1,1)">
      <path fill="#FFFFFF" stroke="none"
            d="M 1331.3291514922403 828.3623484750485 L 1323 808 L 1314.4912448141029 828.2879541892836"/>
    </g>
    <g transform="translate(-1246,-366) scale(1,1)">
      <path fill="none" stroke="#000000"
            d="M 1331.3291514922403 828.3623484750485 L 1323 808 L 1314.4912448141029 828.2879541892836 L 1331.3291514922403 828.3623484750485"
            stroke-miterlimit="10"/>
    </g>
    <g transform="translate(-1246,-366) scale(1,1)">
      <path fill="none" stroke="#000000" d="M 2125 1196 L 2271 1213" stroke-miterlimit="10"/>
    </g>
    <g transform="translate(-1246,-366) scale(1,1)">
      <path fill="none" stroke="#000000" d="M 2125 1244 L 2271 1231" stroke-miterlimit="10"/>
    </g>
    <g transform="translate(-1246,-366) scale(1,1)">
      <path fill="#C0C0C0" stroke="none"
            d="M 1535 1182.5 C 1535 1169.5213072 1571.7126464 1159 1617 1159 C 1662.2873536 1159 1699 1169.5213072 1699 1182.5 C 1699 1195.4786928 1662.2873536 1206 1617 1206 C 1571.7126464 1206 1535 1195.4786928 1535 1182.5 Z"
            opacity="0.2"/>
    </g>
    <g transform="translate(-1246,-366) scale(1,1)">
      <path fill="#ffffff" stroke="none"
            d="M 1528 1175.5 C 1528 1162.5213072 1564.7126464 1152 1610 1152 C 1655.2873536 1152 1692 1162.5213072 1692 1175.5 C 1692 1188.4786928 1655.2873536 1199 1610 1199 C 1564.7126464 1199 1528 1188.4786928 1528 1175.5 Z"/>
    </g>
    <g transform="translate(-1246,-366) scale(1,1)">
      <path fill="none" stroke="#000000"
            d="M 1528 1175.5 C 1528 1162.5213072 1564.7126464 1152 1610 1152 C 1655.2873536 1152 1692 1162.5213072 1692 1175.5 C 1692 1188.4786928 1655.2873536 1199 1610 1199 C 1564.7126464 1199 1528 1188.4786928 1528 1175.5 Z"
            stroke-miterlimit="10"/>
    </g>
    <g transform="translate(-1246,-366) scale(1,1)">
      <g>
        <path fill="none" stroke="none"/>
        <text fill="#000000" stroke="none" font-family="Arial" font-size="13px" font-style="normal" font-weight="bold"
              text-decoration="none" x="1559.5361328125" y="1182.5">Validate Payment
        </text>
      </g>
    </g>
    <g transform="translate(-1246,-366) scale(1,1)">
      <path fill="none" stroke="#000000" d="M 1791 1176 L 1693 1175" stroke-miterlimit="10" stroke-dasharray="3"/>
    </g>
    <g transform="translate(-1246,-366) scale(1,1)">
      <path fill="none" stroke="#000000"
            d="M 1703.20509784013 1170.8943967467162 L 1693 1175 L 1703.1191937866865 1179.3129939841697"
            stroke-miterlimit="10"/>
    </g>
    <g transform="translate(-1246,-366) scale(1,1)">
      <g>
        <path fill="none" stroke="none"/>
        <text fill="#000000" stroke="none" font-family="Arial" font-size="13px" font-style="normal" font-weight="normal"
              text-decoration="none" x="1713.5" y="1211.5">«include»
        </text>
      </g>
    </g>
    <g transform="translate(-1246,-366) scale(1,1)">
      <path fill="#C0C0C0" stroke="none"
            d="M 1567 2163 C 1567 2147.5360256 1602.817216 2135 1647 2135 C 1691.182784 2135 1727 2147.5360256 1727 2163 C 1727 2178.4639744 1691.182784 2191 1647 2191 C 1602.817216 2191 1567 2178.4639744 1567 2163 Z"
            opacity="0.2"/>
    </g>
    <g transform="translate(-1246,-366) scale(1,1)">
      <path fill="#ffffff" stroke="none"
            d="M 1560 2156 C 1560 2140.5360256 1595.817216 2128 1640 2128 C 1684.182784 2128 1720 2140.5360256 1720 2156 C 1720 2171.4639744 1684.182784 2184 1640 2184 C 1595.817216 2184 1560 2171.4639744 1560 2156 Z"/>
    </g>
    <g transform="translate(-1246,-366) scale(1,1)">
      <path fill="none" stroke="#000000"
            d="M 1560 2156 C 1560 2140.5360256 1595.817216 2128 1640 2128 C 1684.182784 2128 1720 2140.5360256 1720 2156 C 1720 2171.4639744 1684.182784 2184 1640 2184 C 1595.817216 2184 1560 2171.4639744 1560 2156 Z"
            stroke-miterlimit="10"/>
    </g>
    <g transform="translate(-1246,-366) scale(1,1)">
      <g>
        <path fill="none" stroke="none"/>
        <text fill="#000000" stroke="none" font-family="Arial" font-size="13px" font-style="normal" font-weight="bold"
              text-decoration="none" x="1610.010498046875" y="2163">Sell Token
        </text>
      </g>
    </g>
    <g transform="translate(-1246,-366) scale(1,1)">
      <path fill="none" stroke="#000000" d="M 1383 2030 L 1581 2127" stroke-miterlimit="10"/>
    </g>
    <g transform="translate(-1246,-366) scale(1,1)">
      <path fill="#ffffff" stroke="none"
            d="M 2343.8524655539773 2137.6800000000003 C 2343.8524655539773 2132.886167936 2347.7383078789226 2129 2352.53173828125 2129 C 2357.3251686835774 2129 2361.2110110085227 2132.886167936 2361.2110110085227 2137.6800000000003 C 2361.2110110085227 2142.4738320640004 2357.3251686835774 2146.36 2352.53173828125 2146.36 C 2347.7383078789226 2146.36 2343.8524655539773 2142.4738320640004 2343.8524655539773 2137.6800000000003 Z"/>
    </g>
    <g transform="translate(-1246,-366) scale(1,1)">
      <path fill="none" stroke="#000000"
            d="M 2343.8524655539773 2137.6800000000003 C 2343.8524655539773 2132.886167936 2347.7383078789226 2129 2352.53173828125 2129 C 2357.3251686835774 2129 2361.2110110085227 2132.886167936 2361.2110110085227 2137.6800000000003 C 2361.2110110085227 2142.4738320640004 2357.3251686835774 2146.36 2352.53173828125 2146.36 C 2347.7383078789226 2146.36 2343.8524655539773 2142.4738320640004 2343.8524655539773 2137.6800000000003 Z"
            stroke-miterlimit="10"/>
    </g>
    <g transform="translate(-1246,-366) scale(1,1)">
      <path fill="none" stroke="#000000" d="M 2352.53173828125 2146.36 L 2352.53173828125 2163.64"
            stroke-miterlimit="10"/>
    </g>
    <g transform="translate(-1246,-366) scale(1,1)">
      <path fill="none" stroke="#000000" d="M 2343.3419200994317 2152.84 L 2361.7215564630683 2152.84"
            stroke-miterlimit="10"/>
    </g>
    <g transform="translate(-1246,-366) scale(1,1)">
      <path fill="none" stroke="#000000" d="M 2352.53173828125 2163.64 L 2339.7681019176134 2181"
            stroke-miterlimit="10"/>
    </g>
    <g transform="translate(-1246,-366) scale(1,1)">
      <path fill="none" stroke="#000000" d="M 2352.53173828125 2163.64 L 2365.2953746448866 2181"
            stroke-miterlimit="10"/>
    </g>
    <g transform="translate(-1246,-366) scale(1,1)">
      <g>
        <path fill="none" stroke="none"/>
        <text fill="#000000" stroke="none" font-family="Arial" font-size="13px" font-style="normal" font-weight="bold"
              text-decoration="none" x="2315.318603515625" y="2201.5">Payment Bot
        </text>
      </g>
    </g>
    <g transform="translate(-1246,-366) scale(1,1)">
      <path fill="none" stroke="#000000" d="M 2352 2127 L 2359 1264" stroke-miterlimit="10"/>
    </g>
    <g transform="translate(-1246,-366) scale(1,1)">
      <path fill="#FFFFFF" stroke="none"
            d="M 2367.253900208523 1284.3929676934904 L 2359 1264 L 2350.4163830640987 1284.256394553269"/>
    </g>
    <g transform="translate(-1246,-366) scale(1,1)">
      <path fill="none" stroke="#000000"
            d="M 2367.253900208523 1284.3929676934904 L 2359 1264 L 2350.4163830640987 1284.256394553269 L 2367.253900208523 1284.3929676934904"
            stroke-miterlimit="10"/>
    </g>
    <g transform="translate(-1246,-366) scale(1,1)">
      <path fill="#C0C0C0" stroke="none"
            d="M 1911 2167 C 1911 2149.3268864 1963.606536 2135 2028.5 2135 C 2093.393464 2135 2146 2149.3268864 2146 2167 C 2146 2184.6731136 2093.393464 2199 2028.5 2199 C 1963.606536 2199 1911 2184.6731136 1911 2167 Z"
            opacity="0.2"/>
    </g>
    <g transform="translate(-1246,-366) scale(1,1)">
      <path fill="#ffffff" stroke="none"
            d="M 1904 2160 C 1904 2142.3268864 1956.606536 2128 2021.5 2128 C 2086.393464 2128 2139 2142.3268864 2139 2160 C 2139 2177.6731136 2086.393464 2192 2021.5 2192 C 1956.606536 2192 1904 2177.6731136 1904 2160 Z"/>
    </g>
    <g transform="translate(-1246,-366) scale(1,1)">
      <path fill="none" stroke="#000000"
            d="M 1904 2160 C 1904 2142.3268864 1956.606536 2128 2021.5 2128 C 2086.393464 2128 2139 2142.3268864 2139 2160 C 2139 2177.6731136 2086.393464 2192 2021.5 2192 C 1956.606536 2192 1904 2177.6731136 1904 2160 Z"
            stroke-miterlimit="10"/>
    </g>
    <g transform="translate(-1246,-366) scale(1,1)">
      <g>
        <path fill="none" stroke="none"/>
        <text fill="#000000" stroke="none" font-family="Arial" font-size="13px" font-style="normal" font-weight="bold"
              text-decoration="none" x="1948.22265625" y="2167">Pay for 'Assist Me' Order
        </text>
      </g>
    </g>
    <g transform="translate(-1246,-366) scale(1,1)">
      <path fill="none" stroke="#000000" d="M 2140 2163 L 2295 2166" stroke-miterlimit="10"/>
    </g>
    <g transform="translate(-1246,-366) scale(1,1)">
      <path fill="#ffffff" stroke="none"
            d="M 1310.0922116477273 1969.6799999999998 C 1310.0922116477273 1964.8861679359998 1313.9780539726728 1961 1318.771484375 1961 C 1323.5649147773272 1961 1327.4507571022727 1964.8861679359998 1327.4507571022727 1969.6799999999998 C 1327.4507571022727 1974.473832064 1323.5649147773272 1978.36 1318.771484375 1978.36 C 1313.9780539726728 1978.36 1310.0922116477273 1974.473832064 1310.0922116477273 1969.6799999999998 Z"/>
    </g>
    <g transform="translate(-1246,-366) scale(1,1)">
      <path fill="none" stroke="#000000"
            d="M 1310.0922116477273 1969.6799999999998 C 1310.0922116477273 1964.8861679359998 1313.9780539726728 1961 1318.771484375 1961 C 1323.5649147773272 1961 1327.4507571022727 1964.8861679359998 1327.4507571022727 1969.6799999999998 C 1327.4507571022727 1974.473832064 1323.5649147773272 1978.36 1318.771484375 1978.36 C 1313.9780539726728 1978.36 1310.0922116477273 1974.473832064 1310.0922116477273 1969.6799999999998 Z"
            stroke-miterlimit="10"/>
    </g>
    <g transform="translate(-1246,-366) scale(1,1)">
      <path fill="none" stroke="#000000" d="M 1318.771484375 1978.36 L 1318.771484375 1995.64" stroke-miterlimit="10"/>
    </g>
    <g transform="translate(-1246,-366) scale(1,1)">
      <path fill="none" stroke="#000000" d="M 1309.5816661931817 1984.84 L 1327.9613025568183 1984.84"
            stroke-miterlimit="10"/>
    </g>
    <g transform="translate(-1246,-366) scale(1,1)">
      <path fill="none" stroke="#000000" d="M 1318.771484375 1995.64 L 1306.0078480113636 2013" stroke-miterlimit="10"/>
    </g>
    <g transform="translate(-1246,-366) scale(1,1)">
      <path fill="none" stroke="#000000" d="M 1318.771484375 1995.64 L 1331.5351207386364 2013" stroke-miterlimit="10"/>
    </g>
    <g transform="translate(-1246,-366) scale(1,1)">
      <g>
        <path fill="none" stroke="none"/>
        <text fill="#000000" stroke="none" font-family="Arial" font-size="13px" font-style="normal" font-weight="bold"
              text-decoration="none" x="1263.98486328125" y="2033.5">Trainee with Wallet
        </text>
      </g>
    </g>
    <g transform="translate(-1246,-366) scale(1,1)">
      <path fill="#ffffff" stroke="none"
            d="M 2516.9940671164773 1937.6799999999998 C 2516.9940671164773 1932.8861679359998 2520.8799094414226 1929 2525.67333984375 1929 C 2530.4667702460774 1929 2534.3526125710227 1932.8861679359998 2534.3526125710227 1937.6799999999998 C 2534.3526125710227 1942.473832064 2530.4667702460774 1946.36 2525.67333984375 1946.36 C 2520.8799094414226 1946.36 2516.9940671164773 1942.473832064 2516.9940671164773 1937.6799999999998 Z"/>
    </g>
    <g transform="translate(-1246,-366) scale(1,1)">
      <path fill="none" stroke="#000000"
            d="M 2516.9940671164773 1937.6799999999998 C 2516.9940671164773 1932.8861679359998 2520.8799094414226 1929 2525.67333984375 1929 C 2530.4667702460774 1929 2534.3526125710227 1932.8861679359998 2534.3526125710227 1937.6799999999998 C 2534.3526125710227 1942.473832064 2530.4667702460774 1946.36 2525.67333984375 1946.36 C 2520.8799094414226 1946.36 2516.9940671164773 1942.473832064 2516.9940671164773 1937.6799999999998 Z"
            stroke-miterlimit="10"/>
    </g>
    <g transform="translate(-1246,-366) scale(1,1)">
      <path fill="none" stroke="#000000" d="M 2525.67333984375 1946.36 L 2525.67333984375 1963.64"
            stroke-miterlimit="10"/>
    </g>
    <g transform="translate(-1246,-366) scale(1,1)">
      <path fill="none" stroke="#000000" d="M 2516.4835216619317 1952.84 L 2534.8631580255683 1952.84"
            stroke-miterlimit="10"/>
    </g>
    <g transform="translate(-1246,-366) scale(1,1)">
      <path fill="none" stroke="#000000" d="M 2525.67333984375 1963.64 L 2512.9097034801134 1981"
            stroke-miterlimit="10"/>
    </g>
    <g transform="translate(-1246,-366) scale(1,1)">
      <path fill="none" stroke="#000000" d="M 2525.67333984375 1963.64 L 2538.4369762073866 1981"
            stroke-miterlimit="10"/>
    </g>
    <g transform="translate(-1246,-366) scale(1,1)">
      <g>
        <path fill="none" stroke="none"/>
        <text fill="#000000" stroke="none" font-family="Arial" font-size="13px" font-style="normal" font-weight="bold"
              text-decoration="none" x="2472.45458984375" y="2001.5">Mentor with Wallet
        </text>
      </g>
    </g>
    <g transform="translate(-1246,-366) scale(1,1)">
      <path fill="none" stroke="#000000" d="M 2524 1927 L 2516 1568" stroke-miterlimit="10"/>
    </g>
    <g transform="translate(-1246,-366) scale(1,1)">
      <path fill="#FFFFFF" stroke="none"
            d="M 2524.869766085935 1588.1327407369388 L 2516 1568 L 2508.0358742479434 1588.5078692458633"/>
    </g>
    <g transform="translate(-1246,-366) scale(1,1)">
      <path fill="none" stroke="#000000"
            d="M 2524.869766085935 1588.1327407369388 L 2516 1568 L 2508.0358742479434 1588.5078692458633 L 2524.869766085935 1588.1327407369388"
            stroke-miterlimit="10"/>
    </g>
    <g transform="translate(-1246,-366) scale(1,1)">
      <path fill="none" stroke="#000000" d="M 1318 1959 L 1320 1568" stroke-miterlimit="10"/>
    </g>
    <g transform="translate(-1246,-366) scale(1,1)">
      <path fill="#FFFFFF" stroke="none"
            d="M 1328.3149607526436 1588.36814737972 L 1320 1568 L 1311.4771100010873 1588.2820202659013"/>
    </g>
    <g transform="translate(-1246,-366) scale(1,1)">
      <path fill="none" stroke="#000000"
            d="M 1328.3149607526436 1588.36814737972 L 1320 1568 L 1311.4771100010873 1588.2820202659013 L 1328.3149607526436 1588.36814737972"
            stroke-miterlimit="10"/>
    </g>
    <g transform="translate(-1246,-366) scale(1,1)">
      <path fill="none" stroke="#000000" d="M 1887 1915 L 2463 1962" stroke-miterlimit="10"/>
    </g>
  </g>
</svg>
